# xmcd
#
# Track frame offsets: 
#        150
#        38066
#        69445
#        104334
#        124396
#        149335
#        186248
#        221395
#        258427
#
# Disc length: 3843 seconds
#
# Revision: 1
# Processed by: cddbd v1.5.2PL0 Copyright (c) Steve Scherf et al.
# Submitted via: ExactAudioCopy v0.99pb5
#
DISCID=860f0109
DTITLE=1 Giant Leap - What About Me [CD2) (2009)
DYEAR=2009
DGENRE=World
TTITLE0=Under A Stormy Sky . I've Been Away
TTITLE1=What I Need Is Something Different
TTITLE2=Mothers, Don't Cry
TTITLE3=The Truth Is Changing
TTITLE4=Freedom
TTITLE5=Arrival
TTITLE6=Forgive Me
TTITLE7=Set Me Free
TTITLE8=What I Need Is Something Different (dub)
EXTD=
EXTT0=
EXTT1=
EXTT2=
EXTT3=
EXTT4=
EXTT5=
EXTT6=
EXTT7=
EXTT8=
PLAYORDER=
